{"title":"Presumed Innocent (1990) Harrison Ford (DVDrip,Opt.MULTISUBS)","uid":4499322,"size":748073965,"categoryP":"video","categoryS":"movies","magnet":"?xt=urn:btih:02807904f319b542bfaa8aeed6eed2c03f6890eb&amp;dn=Presumed+Innocent+%281990%29+Harrison+Ford+%28DVDrip%2COpt.MULTISUBS%29&amp;tr=udp%3A%2F%2Ftracker.openbittorrent.com%3A80&amp;tr=udp%3A%2F%2Fopen.demonii.com%3A1337&amp;tr=udp%3A%2F%2Ftracker.coppersurfer.tk%3A6969&amp;tr=udp%3A%2F%2Fexodus.desync.com%3A6969","seeders":11,"leechers":3,"uploader":"Kuthumi","files":-1,"time":1226332647,"description":" &lt;a href=&quot;http://www.imdb.com/title/tt0100404/&quot; rel=&quot;nofollow&quot; target=&quot;_NEW&quot;&gt;http://www.imdb.com/title/tt0100404/&lt;/a&gt;\n\nDirected by Alan J. Pakula\nWith Bonnie Bedelia and Brian Dennehy\n\nOptional subtitles in separate idx/sub files:\nCroatian (Hrvatski), Czech, Danish, Dutch, English, Finnish, French, German, Greek, Hebrew, Hungarian, Icelandic, Italian, Norwegian, Polish, Portuguese, Spanish, Swedish, Turkish.\n\nHarrison Ford is excellent in this captivating courtroom drama, where he must investigate the murder of his female colleage and lover -- and finds himself framed with evidence planted in the most unexpected places.\n\nMy new ripping procedure now produces decent quality for such a long film compressed into just 700 MiB. \n\nWidescreen DVDrip XviD 2-pass 720x368, good stereo sound AC3.\nBurn tested, runs well in both my standalone DivX players.\n\nFormat/Info                      : Audio Video Interleave\nFile size                        : 694 MiB\nDuration                         : 2h 1mn\nOveral bit rate                  : 797 Kbps\n\nVideo\nFormat                           : MPEG-4 Visual\nFormat profile                   : Streaming Video@L1\nFormat settings, BVOP            : Yes\nFormat settings, QPel            : No\nFormat settings, GMC             : No warppoints\nFormat settings, Matrix          : Default\nMuxing mode                      : Packet Bitstream\nCodec ID                         : XVID\nCodec ID/Hint                    : XviD\nDuration                         : 2h 1mn\nBit rate                         : 659 Kbps\nWidth                            : 720 pixels\nHeight                           : 368 pixels\nDisplay aspect ratio             : 1.957\nFrame rate                       : 25.000 fps\nResolution                       : 8 bits\nColorimetry                      : 4:2:0\nScan type                        : Progressive\nBits/(Pixel*Frame)               : 0.100\nStream size                      : 574 MiB\nWriting library                  : XviD 1.2.0.dev47 (UTC 2006-11-01)\n\nAudio\nFormat                           : MPEG Audio\nFormat version                   : Version 1\nFormat profile                   : Layer 3\nCodec ID                         : 55\nCodec ID/Hint                    : MP3\nDuration                         : 2h 1mn\nBit rate mode                    : Constant\nBit rate                         : 128 Kbps\nMinimum bit rate                 : 128 Kbps\nChannel(s)                       : 2 channels\nSampling rate                    : 48.0 KHz\nResolution                       : 16 bits\nStream size                      : 111 MiB\nWriting library                  : LAME3.97 \nEncoding settings                : CBR\n\nSource: PAL native (note that PAL/NTSC will give no problems for avi files).","torrent":{"xt":"urn:btih:02807904f319b542bfaa8aeed6eed2c03f6890eb","amp;dn":"Presumed+Innocent+%281990%29+Harrison+Ford+%28DVDrip%2COpt.MULTISUBS%29","amp;tr":["udp%3A%2F%2Ftracker.openbittorrent.com%3A80","udp%3A%2F%2Fopen.demonii.com%3A1337","udp%3A%2F%2Ftracker.coppersurfer.tk%3A6969","udp%3A%2F%2Fexodus.desync.com%3A6969"],"infoHash":"02807904f319b542bfaa8aeed6eed2c03f6890eb","infoHashBuffer":{"type":"Buffer","data":[2,128,121,4,243,25,181,66,191,170,138,238,214,238,210,192,63,104,144,235]},"announce":[],"urlList":[]}}